<svg xmlns="http://www.w3.org/2000/svg" viewBox="0 0 512 512" shape-rendering="crispEdges">
  <rect width="512" height="512" rx="110" fill="#0f172a"/>
  <g transform="translate(96 96)">
    <rect x="0" y="0" width="80" height="80" fill="#ef4444"/>
    <rect x="80" y="0" width="80" height="80" fill="#22c55e"/>
    <rect x="160" y="0" width="80" height="80" fill="#3b82f6"/>
    <rect x="240" y="0" width="80" height="80" fill="#facc15"/>
    <rect x="0" y="80" width="80" height="80" fill="#a855f7"/>
    <rect x="80" y="80" width="80" height="80" fill="#06b6d4"/>
    <rect x="160" y="80" width="80" height="80" fill="#f97316"/>
    <rect x="240" y="80" width="80" height="80" fill="#ec4899"/>
    <rect x="0" y="160" width="80" height="80" fill="#10b981"/>
    <rect x="80" y="160" width="80" height="80" fill="#eab308"/>
    <rect x="160" y="160" width="80" height="80" fill="#f43f5e"/>
    <rect x="240" y="160" width="80" height="80" fill="#8b5cf6"/>
    <rect x="0" y="240" width="80" height="80" fill="#06b6d4"/>
    <rect x="80" y="240" width="80" height="80" fill="#84cc16"/>
    <rect x="160" y="240" width="80" height="80" fill="#ec4899"/>
    <rect x="240" y="240" width="80" height="80" fill="#f59e0b"/>
  </g>
</svg>
